<svg width="130" height="40" viewBox="0 0 130 40" fill="none" xmlns="http://www.w3.org/2000/svg">
<rect width="130" height="40" rx="8" fill="black"/>
<rect x="0.5" y="0.5" width="129" height="39" rx="7.5" stroke="#A6A6A6"/>
<path d="M36.5688 11.2534H37.3629C37.4996 11.2705 37.6384 11.259 37.7705 11.2195C37.9025 11.1801 38.025 11.1136 38.1302 11.0242C38.2354 10.9348 38.321 10.8246 38.3817 10.7003C38.4424 10.576 38.4768 10.4405 38.4827 10.3022C38.4827 9.75193 38.0706 9.39646 37.3717 9.39646C37.2316 9.3768 37.0891 9.38553 36.9524 9.42214C36.8158 9.45875 36.6878 9.52249 36.5761 9.6096C36.4644 9.69672 36.3711 9.80544 36.3019 9.92935C36.2327 10.0533 36.1889 10.1898 36.1731 10.331H35.3012C35.3162 10.0747 35.3836 9.82428 35.4991 9.59527C35.6146 9.36626 35.7758 9.16359 35.9727 8.99989C36.1696 8.83618 36.3979 8.71494 36.6434 8.64372C36.8889 8.5725 37.1464 8.55282 37.3998 8.58591C38.5692 8.58591 39.3926 9.24362 39.3926 10.1904C39.3953 10.5076 39.2897 10.8161 39.0933 11.0645C38.897 11.3129 38.6218 11.486 38.3136 11.5551V11.6255C38.6789 11.6417 39.0229 11.8027 39.2705 12.073C39.518 12.3434 39.6489 12.7013 39.6346 13.0683C39.6076 13.3322 39.5284 13.588 39.4017 13.8208C39.275 14.0535 39.1033 14.2585 38.8967 14.4237C38.6901 14.5889 38.4527 14.7111 38.1985 14.7829C37.9444 14.8548 37.6784 14.875 37.4164 14.8423C37.1538 14.8782 36.8867 14.8607 36.631 14.7907C36.3753 14.7208 36.1362 14.5998 35.928 14.4351C35.7198 14.2703 35.5468 14.0651 35.4193 13.8317C35.2917 13.5983 35.2122 13.3415 35.1855 13.0766H36.0711C36.1246 13.6474 36.6465 14.0156 37.4164 14.0156C38.1863 14.0156 38.6888 13.6021 38.6888 13.0191C38.6888 12.4277 38.2154 12.0635 37.3882 12.0635H36.5688V11.2534Z" fill="white"/>
<path d="M40.6409 13.4243C40.6409 12.6138 41.2426 12.1465 42.308 12.0801L43.5221 12.0098V11.6211C43.5221 11.1455 43.2101 10.877 42.6045 10.877C42.1107 10.877 41.7695 11.0591 41.6703 11.3774H40.814C40.9044 10.604 41.6295 10.1079 42.6463 10.1079C43.77 10.1079 44.4037 10.6699 44.4037 11.6211V14.6978H43.5512V14.0649H43.4813C43.3392 14.2919 43.1397 14.477 42.9032 14.6012C42.6667 14.7254 42.4016 14.7843 42.135 14.7719C41.9468 14.7916 41.7566 14.7714 41.5767 14.7127C41.3968 14.654 41.2311 14.5581 41.0903 14.4311C40.9496 14.3042 40.8369 14.149 40.7595 13.9756C40.682 13.8021 40.6417 13.6144 40.6409 13.4243ZM43.5221 13.0395V12.6631L42.4275 12.7334C41.8103 12.7749 41.5303 12.9858 41.5303 13.3828C41.5303 13.7881 41.8802 14.0239 42.3615 14.0239C42.5024 14.0383 42.6449 14.024 42.7803 13.9819C42.9156 13.9398 43.0412 13.8708 43.1495 13.7789C43.2578 13.6871 43.3466 13.5743 43.4106 13.4473C43.4746 13.3202 43.5125 13.1816 43.5221 13.0395Z" fill="white"/>
<path d="M46.7511 10.9429V14.6978H45.8665V10.1948H48.8177V10.9428L46.7511 10.9429Z" fill="white"/>
<path d="M54.1786 12.4443C54.1786 13.875 53.4583 14.7719 52.3268 14.7719C52.0491 14.791 51.7717 14.7299 51.5273 14.5959C51.2829 14.4619 51.0818 14.2606 50.9475 14.0156H50.8775V16.1948H49.9929V10.1948H50.8444V10.939H50.9105C51.0472 10.6854 51.251 10.4747 51.4994 10.3302C51.7478 10.1857 52.0311 10.113 52.3181 10.1201C53.4583 10.1201 54.1786 11.0131 54.1786 12.4443ZM53.2687 12.4443C53.2687 11.4931 52.8206 10.9184 52.0712 10.9184C51.3266 10.9184 50.861 11.5053 50.861 12.4482C50.861 13.3867 51.3266 13.9741 52.0673 13.9741C52.8206 13.9741 53.2687 13.3994 53.2687 12.4443Z" fill="white"/>
<path d="M55.3565 16.3106V15.5454C55.4522 15.5576 55.5487 15.5632 55.6452 15.562C55.8336 15.576 56.0206 15.5196 56.1702 15.4037C56.3199 15.2877 56.4216 15.1203 56.4559 14.9336L56.522 14.7144L54.8996 10.1948H55.8629L56.9867 13.7715H57.0566L58.1764 10.1948H59.1145L57.4435 14.8838C57.0605 15.9795 56.6367 16.3311 55.723 16.3311C55.6491 16.3311 55.4392 16.3228 55.3565 16.3106Z" fill="white"/>
<path d="M59.8038 13.4199H60.6844C60.7709 13.8169 61.1413 14.0239 61.6594 14.0239C62.2485 14.0239 62.6101 13.7632 62.6101 13.3579C62.6101 12.9238 62.2854 12.7168 61.6594 12.7168H60.9887V12.0264H61.6477C62.1824 12.0264 62.4545 11.8198 62.4545 11.4434C62.4545 11.1128 62.1911 10.8604 61.6477 10.8604C61.153 10.8604 60.7914 11.0713 60.734 11.4268H59.8815C59.9453 11.0183 60.166 10.6513 60.4963 10.4047C60.8266 10.158 61.24 10.0515 61.6477 10.1079C62.7131 10.1079 63.3226 10.5918 63.3226 11.3526C63.3275 11.5644 63.26 11.7715 63.1312 11.9393C63.0024 12.1071 62.8201 12.2254 62.6149 12.2744V12.3447C62.8592 12.3764 63.0835 12.4971 63.2451 12.6838C63.4067 12.8706 63.4945 13.1105 63.4917 13.3579C63.4917 14.2139 62.7666 14.7803 61.6594 14.7803C60.6805 14.7803 59.8854 14.3296 59.8038 13.4199Z" fill="white"/>
<path d="M64.7652 14.6978V10.1948H65.642V13.292H65.712L67.7776 10.1948H68.6544V14.6978H67.7776V11.584H67.7115L65.642 14.6978L64.7652 14.6978Z" fill="white"/>
<path d="M73.4847 10.9428H72.0732V14.6977H71.1877V10.9428H69.7762V10.1948H73.4847V10.9428Z" fill="white"/>
<path d="M78.2499 13.482C78.1294 13.8935 77.8688 14.2494 77.5136 14.4875C77.1584 14.7257 76.7313 14.8309 76.3068 14.7847C76.0115 14.7926 75.718 14.7358 75.4468 14.6182C75.1755 14.5007 74.933 14.3253 74.736 14.1041C74.539 13.883 74.3923 13.6214 74.306 13.3376C74.2197 13.0538 74.1959 12.7545 74.2363 12.4605C74.197 12.1656 74.2212 11.8657 74.3073 11.581C74.3934 11.2964 74.5393 11.0336 74.7353 10.8105C74.9312 10.5875 75.1726 10.4093 75.4431 10.2881C75.7135 10.1669 76.0068 10.1054 76.3029 10.108C77.55 10.108 78.3034 10.964 78.3034 12.378V12.6881H75.1384V12.7379C75.1244 12.9032 75.1449 13.0696 75.1987 13.2264C75.2526 13.3832 75.3384 13.527 75.4508 13.6485C75.5633 13.77 75.6997 13.8665 75.8515 13.9318C76.0033 13.9972 76.167 14.0299 76.3321 14.0279C76.5435 14.0533 76.7577 14.0149 76.9474 13.9177C77.1371 13.8205 77.2937 13.6689 77.3974 13.482L78.2499 13.482ZM75.1383 12.0308H77.4013C77.4125 11.8798 77.3921 11.7281 77.3414 11.5854C77.2908 11.4427 77.211 11.3123 77.1072 11.2024C77.0034 11.0926 76.8778 11.0058 76.7387 10.9475C76.5995 10.8893 76.4497 10.861 76.299 10.8643C76.146 10.8623 75.9941 10.891 75.8523 10.9489C75.7105 11.0068 75.5817 11.0926 75.4735 11.2014C75.3653 11.3101 75.2799 11.4396 75.2223 11.582C75.1648 11.7245 75.1362 11.8771 75.1384 12.0308H75.1383Z" fill="white"/>
<path d="M81.9997 10.1948H84.0206C84.8974 10.1948 85.4116 10.6411 85.4116 11.3398C85.413 11.5615 85.3385 11.777 85.2007 11.9501C85.0629 12.1233 84.87 12.2436 84.6544 12.291V12.3613C84.9162 12.3779 85.1616 12.4949 85.34 12.6881C85.5183 12.8813 85.616 13.1359 85.6129 13.3994C85.6129 14.185 85.0248 14.6977 84.0411 14.6977H81.9997V10.1948ZM82.8765 10.877V12.043H83.7533C84.288 12.043 84.5436 11.8364 84.5436 11.4556C84.5436 11.1045 84.321 10.8769 83.8515 10.8769L82.8765 10.877ZM82.8765 12.6963V14.0156H83.9254C84.4484 14.0156 84.7283 13.7837 84.7283 13.3579C84.7283 12.9072 84.4115 12.6963 83.8146 12.6963L82.8765 12.6963Z" fill="white"/>
<path d="M24.6547 20.3007C24.6654 19.466 24.8861 18.6477 25.2962 17.9217C25.7063 17.1957 26.2926 16.5858 27.0004 16.1486C26.5507 15.5035 25.9575 14.9725 25.2679 14.598C24.5783 14.2234 23.8112 14.0156 23.0277 13.991C21.3562 13.8147 19.7358 14.9958 18.884 14.9958C18.0158 14.9958 16.7044 14.0085 15.2922 14.0376C14.3787 14.0673 13.4885 14.3341 12.7083 14.8122C11.928 15.2903 11.2843 15.9632 10.8399 16.7655C8.91487 20.1139 10.3508 25.035 12.1948 27.7416C13.1175 29.0669 14.1957 30.5474 15.6066 30.4949C16.9873 30.4374 17.5029 29.6104 19.1695 29.6104C20.8206 29.6104 21.3044 30.4949 22.7439 30.4615C24.2254 30.4374 25.1588 29.1303 26.0491 27.7924C26.712 26.848 27.2221 25.8043 27.5605 24.6999C26.6998 24.3341 25.9653 23.722 25.4485 22.9397C24.9318 22.1574 24.6557 21.2396 24.6547 20.3007Z" fill="white"/>
<path d="M21.9358 12.2108C22.7435 11.2366 23.1415 9.98445 23.0451 8.72021C21.811 8.85044 20.6711 9.44299 19.8524 10.3798C19.4521 10.8375 19.1455 11.3699 18.9502 11.9467C18.7548 12.5235 18.6746 13.1333 18.7139 13.7412C19.3312 13.7476 19.9419 13.6132 20.5 13.3481C21.058 13.083 21.5489 12.6942 21.9358 12.2108Z" fill="white"/>
<path d="M42.1072 27.1398H37.3956L36.2642 30.4963H34.2686L38.7312 18.0782H40.8046L45.2673 30.4963H43.2376L42.1072 27.1398ZM37.8836 25.591H41.6183L39.7772 20.1437H39.7257L37.8836 25.591Z" fill="white"/>
<path d="M54.9052 25.9697C54.9052 28.7832 53.4063 30.5908 51.1443 30.5908C50.5713 30.6209 50.0015 30.4883 49.5 30.2082C48.9985 29.928 48.5857 29.5117 48.3088 29.0068H48.266V33.4912H46.4162V21.4423H48.2068V22.9482H48.2408C48.5304 22.4457 48.9502 22.0316 49.4555 21.7497C49.9608 21.4679 50.5326 21.3289 51.1103 21.3476C53.3975 21.3476 54.9052 23.164 54.9052 25.9697ZM53.0038 25.9697C53.0038 24.1367 52.0609 22.9316 50.6223 22.9316C49.209 22.9316 48.2583 24.1621 48.2583 25.9697C48.2583 27.7939 49.209 29.0156 50.6223 29.0156C52.061 29.0156 53.0038 27.8193 53.0038 25.9697Z" fill="white"/>
<path d="M64.8241 25.9697C64.8241 28.7832 63.3252 30.5908 61.0632 30.5908C60.4902 30.6209 59.9204 30.4883 59.4189 30.2081C58.9174 29.928 58.5046 29.5117 58.2278 29.0068H58.185V33.4912H56.3351V21.4423H58.1257V22.9482H58.1597C58.4493 22.4457 58.8691 22.0315 59.3744 21.7497C59.8796 21.4679 60.4515 21.3289 61.0292 21.3476C63.3164 21.3476 64.8241 23.164 64.8241 25.9697ZM62.9228 25.9697C62.9228 24.1367 61.9799 22.9316 60.5412 22.9316C59.1279 22.9316 58.1772 24.1621 58.1772 25.9697C58.1772 27.7939 59.1279 29.0156 60.5412 29.0156C61.9799 29.0156 62.9228 27.8193 62.9228 25.9697H62.9228Z" fill="white"/>
<path d="M71.3795 27.0362C71.5165 28.2676 72.7073 29.0762 74.3345 29.0762C75.8937 29.0762 77.0154 28.2676 77.0154 27.1572C77.0154 26.1934 76.3389 25.6162 74.7369 25.2207L73.135 24.833C70.8653 24.2822 69.8116 23.2158 69.8116 21.4854C69.8116 19.3428 71.6701 17.8711 74.3092 17.8711C76.9211 17.8711 78.7116 19.3428 78.7719 21.4854H76.9046C76.7928 20.2461 75.7731 19.4981 74.283 19.4981C72.7928 19.4981 71.7731 20.2549 71.7731 21.3565C71.7731 22.2344 72.4244 22.751 74.0176 23.1465L75.3794 23.4824C77.9155 24.0849 78.9692 25.1084 78.9692 26.9248C78.9692 29.248 77.1272 30.7031 74.1974 30.7031C71.4562 30.7031 69.6055 29.2822 69.4859 27.0361L71.3795 27.0362Z" fill="white"/>
<path d="M82.9614 19.2998V21.4424H84.6751V22.9141H82.9614V27.9053C82.9614 28.6807 83.3045 29.042 84.0578 29.042C84.2613 29.0384 84.4644 29.0241 84.6663 28.999V30.4619C84.3276 30.5255 83.9834 30.5543 83.6389 30.5478C81.8144 30.5478 81.1028 29.8593 81.1028 28.1035V22.9141H79.7925V21.4424H81.1028V19.2998H82.9614Z" fill="white"/>
<path d="M85.6676 25.9697C85.6676 23.1211 87.3375 21.3311 89.9417 21.3311C92.5545 21.3311 94.2168 23.1211 94.2168 25.9697C94.2168 28.8262 92.5633 30.6084 89.9417 30.6084C87.321 30.6084 85.6676 28.8262 85.6676 25.9697ZM92.3319 25.9697C92.3319 24.0156 91.4406 22.8623 89.9417 22.8623C88.4428 22.8623 87.5524 24.0244 87.5524 25.9697C87.5524 27.9316 88.4428 29.0762 89.9417 29.0762C91.4406 29.0762 92.3319 27.9316 92.3319 25.9697H92.3319Z" fill="white"/>
<path d="M95.7419 21.4424H97.5061V22.9834H97.5489C97.6683 22.5021 97.9489 22.0768 98.3437 21.7789C98.7385 21.481 99.2232 21.3287 99.7166 21.3476C99.9298 21.3469 100.142 21.3702 100.35 21.417V23.1553C100.081 23.0726 99.8005 23.0347 99.5192 23.043C99.2505 23.032 98.9826 23.0796 98.7339 23.1825C98.4852 23.2854 98.2616 23.4411 98.0785 23.639C97.8954 23.8369 97.7571 24.0723 97.673 24.3289C97.589 24.5856 97.5612 24.8575 97.5917 25.126V30.4961H95.7418L95.7419 21.4424Z" fill="white"/>
<path d="M108.879 27.8369C108.631 29.4805 107.037 30.6084 104.999 30.6084C102.377 30.6084 100.75 28.8437 100.75 26.0127C100.75 23.1729 102.386 21.3311 104.921 21.3311C107.415 21.3311 108.982 23.0518 108.982 25.7969V26.4336H102.617V26.5459C102.588 26.8791 102.63 27.2148 102.739 27.5306C102.849 27.8464 103.024 28.1352 103.254 28.3778C103.483 28.6203 103.761 28.8111 104.069 28.9374C104.378 29.0637 104.709 29.1226 105.042 29.1103C105.479 29.1515 105.918 29.0498 106.293 28.8203C106.668 28.5909 106.959 28.246 107.123 27.8369L108.879 27.8369ZM102.626 25.1348H107.132C107.148 24.8352 107.103 24.5354 106.999 24.2541C106.895 23.9729 106.734 23.7164 106.526 23.5006C106.319 23.2849 106.069 23.1145 105.793 23.0003C105.517 22.8861 105.22 22.8305 104.921 22.8369C104.62 22.8351 104.321 22.8933 104.043 23.008C103.764 23.1227 103.511 23.2918 103.297 23.5054C103.084 23.7191 102.915 23.973 102.799 24.2527C102.684 24.5323 102.625 24.8321 102.626 25.1348V25.1348Z" fill="white"/>
</svg>
