<svg width="40" height="40" viewBox="0 0 40 40" fill="none" xmlns="http://www.w3.org/2000/svg">
<rect width="40" height="40" fill="#4064AD"/>
<path d="M13.4151 20.8476H16.2361V32.5806C16.2361 32.8123 16.4219 33 16.6512 33H21.4342C21.6635 33 21.8493 32.8123 21.8493 32.5806V20.9029H25.0923C25.3031 20.9029 25.4806 20.743 25.5047 20.5314L25.9972 16.2119C26.0107 16.0931 25.9735 15.9741 25.8947 15.8849C25.816 15.7957 25.7032 15.7446 25.5849 15.7446H21.8495V13.0369C21.8495 12.2207 22.2845 11.8067 23.1426 11.8067C23.2649 11.8067 25.5849 11.8067 25.5849 11.8067C25.8142 11.8067 26 11.619 26 11.3874V7.42245C26 7.19079 25.8142 7.0031 25.5849 7.0031H22.219C22.1953 7.00193 22.1425 7 22.0648 7C21.4808 7 19.4508 7.11583 17.8472 8.60621C16.0705 10.2578 16.3175 12.2353 16.3765 12.5782V15.7445H13.4151C13.1858 15.7445 13 15.9322 13 16.1638V20.4282C13.0001 20.6598 13.1858 20.8476 13.4151 20.8476Z" fill="white"/>
</svg>
