<svg width="130" height="40" viewBox="0 0 130 40" fill="none" xmlns="http://www.w3.org/2000/svg">
<rect width="130" height="40" rx="8" fill="black"/>
<rect x="0.5" y="0.5" width="129" height="39" rx="7.5" stroke="#A6A6A6"/>
<path d="M10.3624 7.53997C10.0353 7.92959 9.8684 8.43043 9.89587 8.93997V31.06C9.8621 31.5704 10.0298 32.0735 10.3624 32.46L10.4319 32.54L22.7301 20.15V19.85L10.4319 7.46997L10.3624 7.53997Z" fill="url(#paint0_linear)"/>
<path d="M26.8001 24.2797L22.7305 20.1497V19.8497L26.8001 15.7197L26.8894 15.7797L31.7631 18.5597C33.1527 19.3497 33.1527 20.6497 31.7631 21.4497L26.9093 24.2297L26.8001 24.2797Z" fill="url(#paint1_linear)"/>
<path d="M26.9197 24.2198L22.731 19.9998L10.3633 32.4598C10.6438 32.7113 11.0028 32.856 11.3781 32.8688C11.7533 32.8816 12.1212 32.7616 12.4179 32.5298L26.9197 24.2198Z" fill="url(#paint2_linear)"/>
<path d="M26.9197 15.7797L12.4179 7.47972C12.1232 7.24464 11.7556 7.12178 11.3798 7.13276C11.004 7.14373 10.644 7.28783 10.3633 7.53973L22.731 19.9997L26.9197 15.7797Z" fill="url(#paint3_linear)"/>
<path opacity="0.2" d="M26.8006 24.1299L12.4179 32.3799C12.132 32.5973 11.7836 32.7149 11.4254 32.7149C11.0671 32.7149 10.7187 32.5973 10.4328 32.3799L10.3633 32.4499L10.4328 32.5299C10.7187 32.7473 11.0671 32.8649 11.4254 32.8649C11.7836 32.8649 12.132 32.7473 12.4179 32.5299L26.9197 24.2199L26.8006 24.1299Z" fill="black"/>
<path opacity="0.12" d="M10.3624 32.3199C10.0435 31.9233 9.88728 31.4188 9.92562 30.9099V31.0599C9.89184 31.5703 10.0595 32.0735 10.3921 32.4599L10.4616 32.3899L10.3624 32.3199Z" fill="black"/>
<path opacity="0.12" d="M31.7628 21.2998L26.7998 24.1298L26.8891 24.2198L31.7628 21.4398C32.0505 21.3172 32.3 21.1188 32.4852 20.8654C32.6703 20.6119 32.7842 20.3129 32.8149 19.9998C32.7529 20.2843 32.6253 20.5502 32.4426 20.776C32.2598 21.0018 32.027 21.1812 31.7628 21.2998Z" fill="black"/>
<path opacity="0.25" d="M12.4167 7.61974L31.7623 18.6997C32.0265 18.8183 32.2594 18.9977 32.4421 19.2235C32.6249 19.4493 32.7524 19.7152 32.8145 19.9997C32.7838 19.6866 32.6699 19.3876 32.4847 19.1341C32.2996 18.8807 32.05 18.6823 31.7623 18.5597L12.4167 7.47973C11.037 6.67973 9.89551 7.33973 9.89551 8.93974V9.08973C9.92529 7.48973 11.037 6.82974 12.4167 7.61974Z" fill="white"/>
<path d="M65.7447 21.658C64.9668 21.6598 64.2069 21.894 63.5611 22.331C62.9153 22.7679 62.4126 23.388 62.1166 24.1127C61.8206 24.8375 61.7446 25.6344 61.8981 26.4027C62.0517 27.171 62.4279 27.8762 62.9793 28.4291C63.5306 28.9819 64.2323 29.3577 64.9957 29.5088C65.759 29.6599 66.5496 29.5795 67.2676 29.2779C67.9856 28.9763 68.5987 28.4669 69.0294 27.8143C69.4601 27.1616 69.689 26.395 69.6871 25.6112C69.6947 25.0884 69.5977 24.5694 69.402 24.0851C69.2063 23.6009 68.9159 23.1612 68.548 22.7923C68.1802 22.4235 67.7424 22.133 67.2608 21.9381C66.7792 21.7432 66.2636 21.648 65.7447 21.658ZM65.7447 28.0111C65.2679 28.0447 64.7921 27.933 64.3791 27.6906C63.9662 27.4481 63.6351 27.0861 63.4291 26.6516C63.2231 26.2171 63.1515 25.7302 63.2238 25.2542C63.2961 24.7782 63.5088 24.3351 63.8344 23.9825C64.1599 23.63 64.5832 23.3842 65.0493 23.2772C65.5153 23.1702 66.0025 23.207 66.4475 23.3826C66.8925 23.5583 67.2748 23.8648 67.5447 24.2622C67.8145 24.6597 67.9594 25.1297 67.9606 25.6112C67.9755 25.9164 67.9295 26.2214 67.8255 26.5083C67.7215 26.7953 67.5616 27.0583 67.355 27.282C67.1485 27.5057 66.8996 27.6854 66.6231 27.8106C66.3465 27.9359 66.0478 28.004 65.7447 28.0111ZM57.1396 21.658C56.3617 21.6598 55.6018 21.894 54.956 22.331C54.3102 22.7679 53.8076 23.388 53.5116 24.1127C53.2155 24.8375 53.1395 25.6344 53.2931 26.4027C53.4466 27.171 53.8229 27.8762 54.3742 28.4291C54.9256 28.9819 55.6273 29.3577 56.3906 29.5088C57.1539 29.6599 57.9446 29.5795 58.6626 29.2779C59.3806 28.9763 59.9937 28.4669 60.4244 27.8143C60.855 27.1616 61.0839 26.395 61.0821 25.6112C61.0896 25.0884 60.9927 24.5694 60.797 24.0851C60.6013 23.6009 60.3108 23.1612 59.943 22.7923C59.5751 22.4235 59.1374 22.133 58.6558 21.9381C58.1742 21.7432 57.6586 21.648 57.1396 21.658ZM57.1396 28.0111C56.6628 28.0447 56.187 27.933 55.7741 27.6906C55.3611 27.4481 55.0301 27.0861 54.8241 26.6516C54.618 26.2171 54.5465 25.7302 54.6188 25.2542C54.691 24.7782 54.9038 24.3351 55.2293 23.9825C55.5549 23.63 55.9782 23.3842 56.4442 23.2772C56.9102 23.1702 57.3974 23.207 57.8424 23.3826C58.2875 23.5583 58.6698 23.8648 58.9396 24.2622C59.2095 24.6597 59.3544 25.1297 59.3555 25.6112C59.3704 25.9164 59.3245 26.2214 59.2205 26.5083C59.1165 26.7953 58.9565 27.0583 58.75 27.282C58.5435 27.5057 58.2946 27.6854 58.018 27.8106C57.7414 27.9359 57.4428 28.004 57.1396 28.0111ZM46.9096 22.8765V24.5508H50.8982C50.8357 25.3395 50.5103 26.0836 49.9749 26.6624C49.5748 27.073 49.0936 27.3945 48.5624 27.606C48.0312 27.8175 47.4618 27.9143 46.8911 27.8902C45.7158 27.8902 44.5885 27.4198 43.7574 26.5825C42.9263 25.7451 42.4594 24.6095 42.4594 23.4253C42.4594 22.2412 42.9263 21.1055 43.7574 20.2682C44.5885 19.4309 45.7158 18.9605 46.8911 18.9605C48.018 18.9436 49.106 19.3747 49.9195 20.1604L51.0921 18.9791C50.5418 18.4307 49.8884 17.9986 49.1702 17.7079C48.4521 17.4172 47.6835 17.2738 46.9096 17.2861C46.0888 17.254 45.27 17.389 44.5022 17.6833C43.7345 17.9776 43.0336 18.4249 42.4416 18.9986C41.8496 19.5723 41.3786 20.2605 41.0569 21.0219C40.7352 21.7834 40.5693 22.6024 40.5693 23.43C40.5693 24.2575 40.7352 25.0766 41.0569 25.838C41.3786 26.5995 41.8496 27.2877 42.4416 27.8613C43.0336 28.435 43.7345 28.8824 44.5022 29.1767C45.27 29.4709 46.0888 29.606 46.9096 29.5738C47.6994 29.6056 48.4869 29.4687 49.2205 29.1721C49.9541 28.8755 50.6171 28.426 51.166 27.853C52.1355 26.7799 52.6522 25.3686 52.6063 23.9183C52.6096 23.5693 52.5818 23.2206 52.5232 22.8765H46.9096ZM88.7438 24.1788C88.503 23.4651 88.0528 22.8419 87.4526 22.3918C86.8525 21.9416 86.1308 21.6857 85.3831 21.658C84.878 21.657 84.3781 21.7604 83.9143 21.9617C83.4505 22.1631 83.0326 22.4581 82.6865 22.8286C82.3403 23.1992 82.0733 23.6373 81.9019 24.1159C81.7305 24.5945 81.6583 25.1034 81.6899 25.6112C81.682 26.4604 81.947 27.2893 82.4453 27.9742C82.9435 28.659 83.6484 29.1631 84.4545 29.4112C85.2606 29.6592 86.1247 29.6378 86.9178 29.3503C87.7108 29.0628 88.3903 28.5244 88.8546 27.8158L87.5159 26.8856C87.3163 27.2207 87.0332 27.4975 86.6947 27.6884C86.3562 27.8793 85.9741 27.9777 85.5862 27.9739C85.186 27.9906 84.7902 27.8849 84.4507 27.6707C84.1113 27.4565 83.8441 27.1439 83.6842 26.774L88.9377 24.5881L88.7438 24.1788ZM83.3887 25.4996C83.37 25.2107 83.4087 24.9209 83.5026 24.6472C83.5964 24.3735 83.7435 24.1215 83.9352 23.9058C84.127 23.6901 84.3595 23.5151 84.6192 23.3911C84.8789 23.2671 85.1606 23.1965 85.4477 23.1835C85.7452 23.1652 86.0414 23.2357 86.2993 23.3863C86.5571 23.5369 86.7651 23.7608 86.8972 24.0299L83.3887 25.4996ZM79.1231 29.332H80.8497V17.7047H79.1231V29.332ZM76.2979 22.5417H76.2333C75.9753 22.2457 75.657 22.0094 75.3001 21.8489C74.9431 21.6883 74.556 21.6074 74.1651 21.6115C73.1561 21.6608 72.2046 22.0993 71.5078 22.8361C70.8111 23.573 70.4224 24.5517 70.4224 25.5694C70.4224 26.5871 70.8111 27.5658 71.5078 28.3026C72.2046 29.0395 73.1561 29.478 74.1651 29.5273C74.5565 29.5352 74.9449 29.4559 75.3024 29.2951C75.6599 29.1344 75.9778 28.896 76.2333 28.5971H76.2979V29.1645C76.2979 30.6807 75.4946 31.49 74.202 31.49C73.7702 31.4804 73.351 31.3418 72.9975 31.0917C72.6441 30.8416 72.3724 30.4914 72.217 30.0854L70.7212 30.7086C70.9978 31.4084 71.4786 32.0071 72.1001 32.4256C72.7216 32.8441 73.4545 33.0628 74.202 33.0527C76.224 33.0527 77.8952 31.8528 77.8952 28.932V21.8905H76.2979V22.5417ZM74.3128 28.0111C73.7079 27.9731 73.1401 27.7042 72.725 27.2592C72.31 26.8142 72.079 26.2265 72.079 25.6159C72.079 25.0053 72.31 24.4176 72.725 23.9726C73.1401 23.5276 73.7079 23.2587 74.3128 23.2207C74.6085 23.2335 74.8986 23.3062 75.1658 23.4343C75.433 23.5624 75.672 23.7434 75.8684 23.9664C76.0648 24.1894 76.2146 24.45 76.309 24.7326C76.4035 25.0151 76.4405 25.314 76.4179 25.6112C76.4431 25.9096 76.408 26.2099 76.3147 26.4941C76.2213 26.7784 76.0718 27.0406 75.875 27.2649C75.6782 27.4892 75.4383 27.671 75.1698 27.7993C74.9013 27.9276 74.6098 27.9996 74.3128 28.0111ZM96.8318 17.7047H92.6955V29.332H94.422V24.9229H96.8318C97.3239 24.9585 97.818 24.8916 98.2833 24.7264C98.7485 24.5612 99.175 24.3011 99.5361 23.9625C99.8973 23.6239 100.185 23.2139 100.382 22.7582C100.579 22.3025 100.681 21.8108 100.681 21.3138C100.681 20.8168 100.579 20.3251 100.382 19.8694C100.185 19.4137 99.8973 19.0038 99.5361 18.6651C99.175 18.3265 98.7485 18.0665 98.2833 17.9012C97.818 17.736 97.3239 17.6691 96.8318 17.7047ZM96.8318 23.2858H94.422V19.3232H96.8688C97.1282 19.3232 97.3852 19.3747 97.6249 19.4748C97.8646 19.5748 98.0824 19.7214 98.2659 19.9063C98.4494 20.0911 98.5949 20.3106 98.6942 20.5521C98.7935 20.7936 98.8446 21.0524 98.8446 21.3138C98.8446 21.5752 98.7935 21.8341 98.6942 22.0756C98.5949 22.3171 98.4494 22.5365 98.2659 22.7214C98.0824 22.9062 97.8646 23.0528 97.6249 23.1529C97.3852 23.2529 97.1282 23.3044 96.8688 23.3044L96.8318 23.2858ZM107.487 21.6208C106.858 21.5817 106.231 21.7292 105.685 22.045C105.139 22.3607 104.696 22.8309 104.412 23.3974L105.935 24.0392C106.089 23.7596 106.32 23.5309 106.601 23.3807C106.881 23.2305 107.198 23.1652 107.514 23.1928C107.733 23.167 107.956 23.1854 108.168 23.247C108.38 23.3086 108.577 23.4122 108.749 23.5516C108.921 23.691 109.064 23.8635 109.169 24.059C109.274 24.2545 109.339 24.4691 109.361 24.6904V24.802C108.806 24.508 108.188 24.3547 107.56 24.3555C105.917 24.3555 104.237 25.2857 104.237 26.9786C104.253 27.3384 104.341 27.6913 104.495 28.0163C104.649 28.3412 104.867 28.6316 105.135 28.8702C105.402 29.1088 105.715 29.2908 106.054 29.4053C106.393 29.5197 106.752 29.5644 107.108 29.5366C107.541 29.5608 107.973 29.4684 108.359 29.269C108.745 29.0695 109.072 28.7703 109.305 28.4018H109.361V29.332H111.023V24.8578C111.023 22.8207 109.49 21.6394 107.524 21.6394L107.487 21.6208ZM107.274 27.9925C106.711 27.9925 105.926 27.7042 105.926 27.0065C105.926 26.0763 106.905 25.7601 107.773 25.7601C108.321 25.7464 108.863 25.8814 109.342 26.1508C109.284 26.6559 109.047 27.1228 108.673 27.4648C108.3 27.8069 107.816 28.001 107.311 28.0111L107.274 27.9925ZM117.08 21.8905L115.104 26.9321H115.048L112.999 21.8905H111.152L114.227 28.9413L112.472 32.8573H114.273L119 21.8905H117.08ZM101.568 29.332H103.286V17.7047H101.568V29.332Z" fill="white"/>
<path d="M41.7121 14.7004H41.0381V12.84H41.6105C41.868 12.5583 42.0617 12.2236 42.1781 11.859C42.2945 11.4944 42.3308 11.1087 42.2845 10.7285V7.93799H45.9776V12.8307H46.5963V14.6911H45.913V13.5191H41.7121V14.7004ZM42.9954 10.7285C43.0366 11.4757 42.8532 12.2181 42.4692 12.8586H45.239V8.62632H42.9954V10.7285Z" fill="white" stroke="white" stroke-width="0.2" stroke-miterlimit="10"/>
<path d="M52.1458 12.7936C51.88 13.0622 51.5641 13.2753 51.2163 13.4207C50.8686 13.5661 50.4957 13.641 50.1192 13.641C49.7427 13.641 49.3699 13.5661 49.0221 13.4207C48.6743 13.2753 48.3585 13.0622 48.0926 12.7936C47.5644 12.2378 47.2695 11.4981 47.2695 10.7286C47.2695 9.95916 47.5644 9.2194 48.0926 8.66362C48.3585 8.39503 48.6743 8.18193 49.0221 8.03653C49.3699 7.89113 49.7427 7.81628 50.1192 7.81628C50.4957 7.81628 50.8686 7.89113 51.2163 8.03653C51.5641 8.18193 51.88 8.39503 52.1458 8.66362C52.4126 8.93523 52.6227 9.25785 52.7638 9.61248C52.9049 9.96712 52.9742 10.3466 52.9676 10.7286C52.9785 11.1112 52.9112 11.4919 52.7698 11.8472C52.6284 12.2024 52.416 12.5246 52.1458 12.7936ZM48.6096 12.3285C48.8042 12.5321 49.0381 12.6933 49.297 12.8021C49.5559 12.9109 49.8341 12.965 50.1146 12.9611C50.3953 12.9667 50.6741 12.9133 50.9332 12.8044C51.1923 12.6955 51.426 12.5334 51.6196 12.3285C52.0179 11.8924 52.2391 11.3213 52.2391 10.7286C52.2391 10.1359 52.0179 9.56485 51.6196 9.12871C51.426 8.9238 51.1923 8.76173 50.9332 8.65283C50.6741 8.54393 50.3953 8.49059 50.1146 8.49619C49.8341 8.49227 49.5559 8.54639 49.297 8.65518C49.0381 8.76398 48.8042 8.92515 48.6096 9.12871C48.2171 9.56777 47.9999 10.1377 47.9999 10.7286C47.9999 11.3195 48.2171 11.8895 48.6096 12.3285Z" fill="white" stroke="white" stroke-width="0.2" stroke-miterlimit="10"/>
<path d="M56.5501 13.6399C56.1765 13.6458 55.8056 13.5755 55.4597 13.4332C55.1138 13.2909 54.8 13.0796 54.5373 12.812C54.0046 12.2511 53.7072 11.5047 53.7072 10.7284C53.7072 9.95209 54.0046 9.20571 54.5373 8.64481C54.8043 8.37258 55.1241 8.15861 55.4767 8.01619C55.8293 7.87377 56.2073 7.80595 56.587 7.81695C56.9735 7.80593 57.3575 7.884 57.7095 8.04521C58.0615 8.20641 58.3723 8.44649 58.6182 8.74713L58.1289 9.23082C57.9475 8.99587 57.7128 8.8082 57.4445 8.68357C57.1762 8.55894 56.8822 8.50099 56.587 8.51458C56.3028 8.50728 56.0201 8.55882 55.7565 8.66602C55.4929 8.77322 55.2539 8.93379 55.0543 9.1378C54.6566 9.57797 54.4362 10.1518 54.4362 10.747C54.4362 11.3422 54.6566 11.9161 55.0543 12.3562C55.2539 12.5602 55.4929 12.7208 55.7565 12.828C56.0201 12.9352 56.3028 12.9867 56.587 12.9794C56.9043 12.9704 57.2157 12.8916 57.4996 12.7486C57.7835 12.6056 58.0329 12.4018 58.2305 12.1516L58.729 12.6446C58.4761 12.9499 58.1613 13.1973 57.8058 13.3701C57.413 13.555 56.9835 13.6472 56.5501 13.6399Z" fill="white" stroke="white" stroke-width="0.2" stroke-miterlimit="10"/>
<path d="M61.6275 13.5191H60.9166V8.62632H59.3655V7.93799H63.1694V8.62632H61.6275V13.5191Z" fill="white" stroke="white" stroke-width="0.2" stroke-miterlimit="10"/>
<path d="M68.0624 7.93799L65.9666 12.6447C65.9157 12.8334 65.8248 13.0087 65.7 13.1585C65.5752 13.3083 65.4196 13.4289 65.244 13.5121C65.0683 13.5953 64.8768 13.639 64.6827 13.6402C64.4887 13.6414 64.2966 13.6001 64.12 13.5191L64.3046 12.8586C64.4176 12.9226 64.5444 12.9577 64.674 12.961C64.8106 12.9679 64.946 12.9321 65.0617 12.8586C65.1739 12.7646 65.2598 12.6428 65.311 12.5052L65.5141 12.0587L63.6676 7.93799H64.5078L65.8742 11.1378L67.2222 7.93799H68.0624Z" fill="white" stroke="white" stroke-width="0.2" stroke-miterlimit="10"/>
<path d="M68.8653 13.5191V7.93799H72.8724V13.5191H72.1614V8.62632H69.5762V13.5191H68.8653Z" fill="white" stroke="white" stroke-width="0.2" stroke-miterlimit="10"/>
<path d="M74.1375 13.5191V7.93799H74.8485V10.3285H77.6183V7.93799H78.3385V13.5191H77.6183V10.9983H74.8485V13.5191H74.1375Z" fill="white" stroke="white" stroke-width="0.2" stroke-miterlimit="10"/>
<path d="M84.1372 12.7936C83.8706 13.0625 83.5539 13.2758 83.2054 13.4213C82.8569 13.5668 82.4833 13.6418 82.106 13.6418C81.7287 13.6418 81.3551 13.5668 81.0066 13.4213C80.6581 13.2758 80.3414 13.0625 80.0748 12.7936C79.5466 12.2378 79.2517 11.4981 79.2517 10.7286C79.2517 9.95916 79.5466 9.2194 80.0748 8.66362C80.3407 8.39503 80.6565 8.18193 81.0043 8.03653C81.352 7.89113 81.7249 7.81628 82.1014 7.81628C82.4779 7.81628 82.8507 7.89113 83.1985 8.03653C83.5463 8.18193 83.8621 8.39503 84.128 8.66362C84.652 9.22156 84.944 9.9605 84.944 10.7286C84.944 11.4967 84.652 12.2357 84.128 12.7936H84.1372ZM80.601 12.3285C80.7946 12.5334 81.0283 12.6955 81.2874 12.8044C81.5465 12.9133 81.8253 12.9667 82.106 12.9611C82.3865 12.965 82.6648 12.9109 82.9236 12.8021C83.1825 12.6933 83.4164 12.5321 83.611 12.3285C84.0035 11.8895 84.2207 11.3195 84.2207 10.7286C84.2207 10.1377 84.0035 9.56777 83.611 9.12871C83.4164 8.92515 83.1825 8.76398 82.9236 8.65518C82.6648 8.54638 82.3865 8.49227 82.106 8.49619C81.8253 8.49059 81.5465 8.54393 81.2874 8.65283C81.0283 8.76173 80.7946 8.9238 80.601 9.12871C80.2027 9.56485 79.9815 10.1359 79.9815 10.7286C79.9815 11.3213 80.2027 11.8924 80.601 12.3285Z" fill="white" stroke="white" stroke-width="0.2" stroke-miterlimit="10"/>
<path d="M87.8577 13.5191V7.93807H89.8612C90.2766 7.93387 90.6785 8.08652 90.9877 8.36595C91.1419 8.50084 91.2649 8.66824 91.3479 8.85631C91.4308 9.04437 91.4718 9.2485 91.4678 9.45426C91.47 9.70483 91.3994 9.95058 91.2646 10.1612C91.1284 10.3609 90.9398 10.5187 90.7199 10.617C90.9865 10.7088 91.2207 10.8769 91.3939 11.1007C91.5636 11.3286 91.6544 11.6064 91.6524 11.8913C91.6571 12.1058 91.6149 12.3186 91.5287 12.5148C91.4426 12.7109 91.3146 12.8855 91.1539 13.0262C90.8334 13.3266 90.4097 13.49 89.972 13.4819L87.8577 13.5191ZM88.5686 10.3286H89.8612C89.9822 10.3357 90.1031 10.3151 90.2151 10.2684C90.327 10.2217 90.427 10.15 90.5075 10.0589C90.6641 9.90432 90.7537 9.69369 90.7568 9.47287C90.7656 9.25136 90.6895 9.03493 90.5445 8.86825C90.4669 8.78151 90.3711 8.71316 90.2642 8.66813C90.1572 8.62309 90.0417 8.60249 89.9259 8.6078H88.5963L88.5686 10.3286ZM88.5686 12.8308H90.009C90.134 12.835 90.2584 12.8114 90.3734 12.7615C90.4883 12.7117 90.5909 12.6369 90.6737 12.5425C90.8332 12.3709 90.9222 12.1449 90.923 11.9099C90.9174 11.6769 90.8251 11.4545 90.6645 11.2867C90.5755 11.1926 90.4679 11.1183 90.3486 11.0686C90.2293 11.0189 90.1011 10.995 89.972 10.9984H88.5686V12.8308Z" fill="white" stroke="white" stroke-width="0.2" stroke-miterlimit="10"/>
<defs>
<linearGradient id="paint0_linear" x1="21.6382" y1="8.70997" x2="4.85871" y2="25.3652" gradientUnits="userSpaceOnUse">
<stop stop-color="#00A0FF"/>
<stop offset="0.01" stop-color="#00A1FF"/>
<stop offset="0.26" stop-color="#00BEFF"/>
<stop offset="0.51" stop-color="#00D2FF"/>
<stop offset="0.76" stop-color="#00DFFF"/>
<stop offset="1" stop-color="#00E3FF"/>
</linearGradient>
<linearGradient id="paint1_linear" x1="33.5795" y1="19.9997" x2="9.5687" y2="19.9997" gradientUnits="userSpaceOnUse">
<stop stop-color="#FFE000"/>
<stop offset="0.41" stop-color="#FFBD00"/>
<stop offset="0.78" stop-color="#FFA500"/>
<stop offset="1" stop-color="#FF9C00"/>
</linearGradient>
<linearGradient id="paint2_linear" x1="24.6467" y1="22.2998" x2="1.88739" y2="44.8805" gradientUnits="userSpaceOnUse">
<stop stop-color="#FF3A44"/>
<stop offset="1" stop-color="#C31162"/>
</linearGradient>
<linearGradient id="paint3_linear" x1="7.24654" y1="0.179726" x2="17.4063" y2="10.2642" gradientUnits="userSpaceOnUse">
<stop stop-color="#32A071"/>
<stop offset="0.07" stop-color="#2DA771"/>
<stop offset="0.48" stop-color="#15CF74"/>
<stop offset="0.8" stop-color="#06E775"/>
<stop offset="1" stop-color="#00F076"/>
</linearGradient>
</defs>
</svg>
