<svg width="40" height="40" viewBox="0 0 40 40" fill="none" xmlns="http://www.w3.org/2000/svg">
<rect width="40" height="40" fill="#FF9800"/>
<path d="M12.1144 20.9545C11.4503 22.2599 12.2043 22.8839 13.9246 23.9499C15.3871 24.8534 17.4075 25.1838 18.7054 25.3159C18.1734 25.8273 20.6109 23.483 13.591 30.2353C12.1025 31.6621 14.4988 33.9511 15.9862 32.5547L20.0129 28.671C21.5545 30.1541 23.0322 31.5754 24.0397 32.5602C25.5282 33.962 27.9234 31.6924 26.4512 30.2407C26.3407 30.1357 20.9944 25.0072 21.3205 25.3214C22.6346 25.1892 24.6247 24.8393 26.0698 23.9553L26.0687 23.9542C27.7891 22.8828 28.5431 22.2599 27.8887 20.9545C27.4933 20.2135 26.4273 19.5938 25.0082 20.6652C25.0082 20.6652 23.0918 22.1331 20.001 22.1331C16.9092 22.1331 14.9939 20.6652 14.9939 20.6652C13.5758 19.5884 12.5055 20.2135 12.1144 20.9545Z" fill="white"/>
<path d="M19.9982 20.1538C23.766 20.1538 26.8427 17.2093 26.8427 13.5845C26.8427 9.94448 23.766 7 19.9982 7C16.2293 7 13.1527 9.94448 13.1527 13.5845C13.1527 17.2093 16.2293 20.1538 19.9982 20.1538ZM19.9982 10.3356C21.8496 10.3356 23.3598 11.7883 23.3598 13.5845C23.3598 15.3655 21.8496 16.8182 19.9982 16.8182C18.1468 16.8182 16.6367 15.3655 16.6367 13.5845C16.6356 11.7872 18.1457 10.3356 19.9982 10.3356Z" fill="white"/>
</svg>
