<svg width="159" height="40" viewBox="0 0 159 40" fill="none" xmlns="http://www.w3.org/2000/svg">
<g clip-path="url(#clip0)">
<path d="M41.5896 18.4918C42.2466 19.2132 43.035 19.7377 44.0205 20.1312C45.0061 20.5246 46.123 20.7214 47.5028 20.7214C48.1598 20.7214 48.8168 20.6558 49.3424 20.5902C49.9338 20.5246 50.3937 20.3935 50.8536 20.1968C51.3135 20.0656 51.7077 19.8689 52.102 19.7377C52.4305 19.541 52.759 19.4099 53.0218 19.2787L52.5619 18.2951C52.2991 18.4263 52.0363 18.5574 51.7734 18.6886C51.5106 18.8197 51.2478 18.8853 50.9193 19.0164C50.5908 19.082 50.2623 19.2132 49.8681 19.2132C49.4739 19.2787 49.0139 19.2787 48.4883 19.2787C47.5028 19.2787 46.6486 19.082 46.0573 18.6886C45.4003 18.2951 44.9404 17.7705 44.5462 17.1804C44.2177 16.5246 43.9548 15.7377 43.8234 14.8853C43.692 13.9673 43.6263 13.0492 43.6263 12C43.6263 11.2132 43.692 10.3607 43.7577 9.50824C43.8234 8.65578 44.0205 7.93447 44.3491 7.27873C44.6776 6.62299 45.0718 6.0984 45.6631 5.63939C46.2544 5.24595 47.0429 4.98365 48.0284 4.98365C48.9482 4.98365 49.7367 5.24595 50.3937 5.70496C51.0507 6.16398 51.4449 6.95086 51.642 7.93447H52.6933V4.72136C52.3648 4.59021 52.0362 4.45906 51.642 4.32791C51.2478 4.19677 50.8536 4.13119 50.3937 4.06562C49.9338 4.00004 49.5396 4.00004 49.0796 3.93447C48.6854 3.93447 48.2912 3.8689 47.9627 3.8689C46.5172 3.8689 45.3346 4.06562 44.2834 4.45906C43.2978 4.8525 42.4437 5.44267 41.7867 6.16398C41.1296 6.88529 40.6697 7.80332 40.3412 8.8525C40.0127 9.90168 39.8813 11.1476 39.8813 12.4591C39.8813 13.705 40.0127 14.8853 40.3412 15.8689C40.5383 16.9837 40.9982 17.8361 41.5896 18.4918Z" fill="#1A9F29"/>
<path d="M105.847 20.1967C106.635 20.1311 107.423 19.8688 108.015 19.5409C108.672 19.1475 109.197 18.6229 109.526 17.9016C109.92 17.1803 110.117 16.1967 110.117 14.9508C110.117 14.0327 109.986 13.3114 109.723 12.6557C109.46 12 109.066 11.5409 108.475 11.0819C107.883 10.6885 107.161 10.4262 106.241 10.2295C105.321 10.0327 104.204 9.96717 102.89 9.96717H101.51V6.09832C101.51 5.70487 101.576 5.44258 101.773 5.31143C101.97 5.18028 102.299 5.18028 102.824 5.18028H104.795C105.387 5.18028 105.912 5.18028 106.307 5.24586C106.701 5.31143 107.029 5.37701 107.226 5.57373C107.489 5.77045 107.686 6.03274 107.818 6.36061C107.949 6.68848 108.146 7.1475 108.278 7.73766H109.132V4.1311H97.9623H97.0425V4.65569C97.1082 4.65569 97.1739 4.72127 97.371 4.72127C97.5681 4.78684 97.6995 4.85241 97.7652 4.91799C97.8309 4.98356 97.8966 5.11471 97.9623 5.31143C97.9623 5.50815 98.028 5.70487 98.028 5.96717V9.24586V15.2131V18.4918C98.028 18.7541 98.028 19.0164 97.9623 19.1475C97.9623 19.3442 97.8966 19.4754 97.7652 19.5409C97.6995 19.6065 97.5681 19.7377 97.371 19.7377C97.1739 19.8032 97.1082 19.8032 97.0425 19.8032V20.3278H103.153C104.138 20.3278 104.992 20.3278 105.847 20.1967ZM101.839 19.0164C101.707 18.8852 101.642 18.7541 101.642 18.5573C101.642 18.3606 101.576 18.0983 101.576 17.7704V10.9508H102.956C104.204 10.9508 105.124 11.2786 105.65 11.9344C106.175 12.5901 106.438 13.6393 106.438 15.0819C106.438 16.0655 106.372 16.7868 106.175 17.377C105.978 17.9672 105.781 18.3606 105.452 18.6885C105.124 18.9508 104.795 19.1475 104.467 19.2786C104.073 19.3442 103.678 19.4098 103.284 19.4098C102.89 19.3442 102.561 19.3442 102.364 19.2786C102.167 19.2131 101.97 19.1475 101.839 19.0164Z" fill="#1A9F29"/>
<path d="M88.5669 19.8032C88.5012 19.8032 88.4355 19.7377 88.2384 19.7377C88.0412 19.6721 87.9098 19.6065 87.8441 19.5409C87.7784 19.4754 87.7127 19.3442 87.647 19.1475C87.647 18.9508 87.5813 18.7541 87.5813 18.4918V13.9672H89.2239C90.078 13.9672 90.8665 13.9016 91.6549 13.7704C92.4433 13.6393 93.1003 13.377 93.6917 13.0491C94.283 12.6557 94.7429 12.1967 95.0714 11.4754C95.3999 10.8196 95.597 9.90159 95.597 8.78684C95.597 7.73766 95.3999 6.8852 95.1371 6.29504C94.8086 5.70487 94.3487 5.18028 93.8231 4.85241C93.2974 4.52455 92.6404 4.32782 91.9177 4.26225C91.195 4.19668 90.4722 4.1311 89.6838 4.1311H84.1648H83.245V4.65569C83.3107 4.65569 83.3764 4.72127 83.5735 4.72127C83.7706 4.78684 83.902 4.85241 83.9677 4.91799C84.0334 4.98356 84.0991 5.11471 84.1648 5.31143C84.1648 5.50815 84.2305 5.70487 84.2305 5.96717V18.4262C84.2305 18.6885 84.2305 18.9508 84.1648 19.0819C84.1648 19.2786 84.0991 19.4098 83.9677 19.4754C83.902 19.5409 83.7706 19.6721 83.5735 19.6721C83.3764 19.7377 83.3107 19.7377 83.245 19.7377V20.2622H88.5669V19.8032ZM87.647 5.96717C87.647 5.83602 87.647 5.70487 87.7127 5.57373C87.7127 5.44258 87.7784 5.37701 87.8441 5.31143C87.9098 5.24586 88.0412 5.18028 88.2384 5.18028C88.4355 5.18028 88.6326 5.11471 88.9611 5.11471C89.3553 5.11471 89.7495 5.18028 90.1437 5.24586C90.5379 5.377 90.8007 5.57373 91.1293 5.83602C91.3921 6.09832 91.5892 6.49176 91.7863 6.95078C91.9177 7.40979 91.9834 7.99996 91.9834 8.65569C91.9834 10.0327 91.7863 11.0819 91.3921 11.8032C90.9979 12.5245 90.2751 12.918 89.2896 12.918H87.647V5.96717Z" fill="#1A9F29"/>
<path d="M81.077 16.5901H80.0258C79.8944 17.2459 79.7629 17.7049 79.6315 18.0983C79.5001 18.4918 79.3687 18.7541 79.1059 18.9508C78.9088 19.1475 78.5803 19.2786 78.1861 19.2786C77.7919 19.3442 77.2663 19.3442 76.5435 19.3442C75.8865 19.3442 75.3609 19.3442 75.0324 19.2786C74.6382 19.2131 74.3753 19.1475 74.1782 19.0163C73.9811 18.8852 73.8497 18.6885 73.8497 18.4918C73.784 18.2295 73.784 17.9672 73.784 17.5737V12.459H75.9522C76.1493 12.459 76.3464 12.459 76.6092 12.459C76.872 12.459 77.1349 12.5245 77.3977 12.5245C77.6605 12.5245 77.9233 12.5901 78.1861 12.6557C78.4489 12.7213 78.646 12.7868 78.8431 12.918V10.8196C78.646 10.9508 78.4489 11.0163 78.1861 11.0819C77.9233 11.1475 77.6605 11.2131 77.3977 11.2131C77.1349 11.2786 76.872 11.2786 76.6092 11.2786C76.3464 11.2786 76.1493 11.2786 75.9522 11.2786H73.784V5.90159C73.784 5.57373 73.8497 5.31143 73.9154 5.18028C74.0468 5.04914 74.2439 5.04914 74.5725 5.04914H76.3464C76.9377 5.04914 77.4634 5.04914 77.8576 5.11471C78.2518 5.18028 78.5803 5.24586 78.7774 5.44258C79.0402 5.6393 79.2373 5.90159 79.3687 6.22946C79.5001 6.55733 79.6972 7.01635 79.8286 7.60651H80.6828V4.1311H70.3018H69.382V4.65569C69.4477 4.65569 69.5134 4.72127 69.7105 4.72127C69.9076 4.78684 70.039 4.85241 70.1047 4.91799C70.1704 4.98356 70.2361 5.11471 70.3018 5.31143C70.3018 5.50815 70.3675 5.70487 70.3675 5.96717V18.4262C70.3675 18.6885 70.3675 18.9508 70.3018 19.0819C70.3018 19.2786 70.2361 19.4098 70.1047 19.4754C70.039 19.5409 69.9076 19.6721 69.7105 19.6721C69.5134 19.7377 69.4477 19.7377 69.382 19.7377V20.2622H81.077V16.5901Z" fill="#1A9F29"/>
<path d="M63.2057 20.1967C63.9941 20.1311 64.7826 19.8688 65.3739 19.5409C66.0309 19.1475 66.5565 18.6229 66.9507 17.9016C67.345 17.1803 67.5421 16.1967 67.5421 14.9508C67.5421 14.0327 67.4107 13.3114 67.1479 12.6557C66.885 12 66.4908 11.5409 65.8995 11.0819C65.3082 10.6885 64.5855 10.4262 63.6656 10.2295C62.7458 10.0327 61.6289 9.96717 60.3148 9.96717H58.935V6.09832C58.935 5.70487 59.0008 5.44258 59.1979 5.31143C59.395 5.18028 59.7235 5.18028 60.2491 5.18028H62.2202C62.8115 5.18028 63.3371 5.18028 63.7313 5.24586C64.1255 5.31143 64.4541 5.37701 64.6512 5.57373C64.914 5.77045 65.1111 6.03274 65.2425 6.36061C65.3739 6.68848 65.571 7.1475 65.7024 7.73766H66.5565V4.1311H55.3871H54.4673V4.65569C54.533 4.65569 54.5987 4.72127 54.7958 4.72127C54.9929 4.78684 55.1243 4.85241 55.19 4.91799C55.2557 4.98356 55.3214 5.11471 55.3871 5.31143C55.3871 5.50815 55.4528 5.70487 55.4528 5.96717V6.29504V9.18028V15.0819V17.5082C55.4528 17.5082 55.4528 17.5082 55.4528 17.5737V18.4262C55.4528 18.6885 55.4528 18.8852 55.3871 19.0819C55.3871 19.2786 55.3214 19.4098 55.19 19.4754C55.1243 19.5409 54.9929 19.6721 54.7958 19.6721C54.5987 19.7377 54.533 19.7377 54.4673 19.7377V20.3278H60.5776C61.5631 20.3278 62.3516 20.3278 63.2057 20.1967ZM59.1979 19.0164C59.0665 18.8852 59.0008 18.7541 59.0008 18.5573C59.0008 18.3606 58.935 18.0983 58.935 17.7704V10.9508H60.3148C61.5631 10.9508 62.483 11.2786 63.0086 11.9344C63.5342 12.5901 63.797 13.6393 63.797 15.0819C63.797 16.0655 63.7313 16.7868 63.5342 17.377C63.3371 17.9672 63.14 18.3606 62.8115 18.6885C62.483 18.9508 62.1545 19.1475 61.826 19.2786C61.4317 19.3442 61.0375 19.4098 60.6433 19.4098C60.2491 19.3442 59.9863 19.3442 59.7235 19.2786C59.5264 19.2131 59.3293 19.1475 59.1979 19.0164Z" fill="#1A9F29"/>
<path d="M158.869 24.9181H39.75V26.4919H158.869V24.9181Z" fill="#1A9F29"/>
<path d="M149.342 14.2295C149.67 14.6886 149.933 15.082 150.262 15.4754C150.524 15.8689 150.853 16.2623 151.116 16.6558C151.379 17.0492 151.641 17.4427 151.97 17.8361C152.298 18.2951 152.561 18.6886 152.824 19.1476C153.087 19.541 153.284 20 153.481 20.3935L159 20.459C158.409 19.8689 157.883 19.2787 157.292 18.6886C156.766 18.0984 156.306 17.5738 155.978 17.2459C155.452 16.6558 154.992 16.1312 154.598 15.6722C154.138 15.1476 153.744 14.6886 153.35 14.2295C152.955 13.7705 152.561 13.2459 152.233 12.7869C151.904 12.3279 151.51 11.7377 151.181 11.2131L151.444 10.8853C151.839 10.3607 152.298 9.8361 152.824 9.18036C153.35 8.52462 153.875 7.86889 154.467 7.27872C155.058 6.62298 155.584 6.03282 156.175 5.50823C156.766 4.98364 157.226 4.5902 157.686 4.26233H153.875C153.744 4.5902 153.547 4.98364 153.284 5.44266C153.021 5.90167 152.758 6.42626 152.364 6.95085C152.036 7.47544 151.641 8.06561 151.313 8.65577C150.919 9.24593 150.59 9.77052 150.196 10.2951C149.802 10.8197 149.473 11.3443 149.145 11.7377C148.816 12.1968 148.553 12.5246 148.356 12.8525C148.685 13.3115 149.013 13.7705 149.342 14.2295Z" fill="#1A9F29"/>
<path d="M148.882 19.8032C148.816 19.8032 148.75 19.7377 148.553 19.7377C148.356 19.6721 148.225 19.6065 148.159 19.5409C148.093 19.4754 148.028 19.3442 147.962 19.1475C147.962 18.9508 147.896 18.7541 147.896 18.4918V6.03274C147.896 5.77045 147.896 5.50815 147.962 5.377C147.962 5.18028 148.028 5.04914 148.159 4.98356C148.225 4.91799 148.356 4.85241 148.553 4.78684C148.75 4.72127 148.816 4.72127 148.882 4.72127V4.1311H144.48H143.56V4.65569C143.626 4.65569 143.691 4.72127 143.888 4.72127C144.086 4.78684 144.217 4.85241 144.283 4.91799C144.348 4.98356 144.414 5.11471 144.48 5.31143C144.48 5.50815 144.545 5.70487 144.545 5.96717V18.4262C144.545 18.6885 144.545 18.9508 144.48 19.0819C144.48 19.2786 144.414 19.4098 144.283 19.4754C144.217 19.5409 144.086 19.6721 143.888 19.6721C143.691 19.7377 143.626 19.7377 143.56 19.7377V20.2622H148.882V19.8032Z" fill="#1A9F29"/>
<path d="M113.534 18.3607C113.731 17.4427 114.125 16.1312 114.651 14.4919H119.841L120.564 16.5902C120.892 17.5083 121.155 18.2951 121.287 18.9509C121.484 19.6066 121.615 20.0656 121.615 20.3935H125.754C125.557 20.0656 125.36 19.6066 125.097 19.082C124.835 18.5574 124.506 17.7705 124.178 16.7869L120.433 6.16399C120.235 5.70497 120.17 5.31153 120.104 4.98366C120.038 4.65579 120.038 4.3935 119.973 4.19678H115.308V4.72137C115.373 4.72137 115.439 4.78694 115.636 4.78694C115.833 4.85252 115.965 4.91809 116.03 4.98366C116.096 5.04924 116.162 5.18038 116.228 5.3771C116.228 5.50825 116.228 5.57383 116.228 5.70497C116.228 6.09842 116.162 6.49186 116.03 6.75415L113.402 13.1804C112.942 14.3607 112.483 15.4099 112.154 16.1968C111.826 16.9837 111.497 17.705 111.3 18.2296C111.037 18.7542 110.84 19.2132 110.643 19.541C110.446 19.8689 110.314 20.1312 110.183 20.3935H113.14C113.205 19.9345 113.337 19.2787 113.534 18.3607ZM117.279 6.81973L119.447 13.3771H114.979L117.279 6.81973Z" fill="#1A9F29"/>
<path d="M131.996 19.8032H131.865C131.799 19.8032 131.734 19.7377 131.536 19.7377C131.339 19.6721 131.208 19.6065 131.142 19.5409C131.077 19.4754 131.011 19.3442 130.945 19.1475C130.945 18.9508 130.879 18.7541 130.879 18.4918V12.2623H137.187V18.4262C137.187 18.6885 137.187 18.9508 137.121 19.0819C137.121 19.2786 137.055 19.4098 136.924 19.4754C136.858 19.5409 136.727 19.6721 136.53 19.6721C136.333 19.7377 136.267 19.7377 136.201 19.7377V20.2623H141.523V19.7377C141.457 19.7377 141.392 19.6721 141.195 19.6721C140.998 19.6065 140.866 19.5409 140.8 19.4754C140.735 19.4098 140.669 19.2786 140.603 19.0819C140.603 18.8852 140.538 18.6885 140.538 18.4262V15.2131V15.0819V9.18028V9.11471V5.9016C140.538 5.6393 140.538 5.37701 140.603 5.24586C140.603 5.04914 140.669 4.91799 140.8 4.85242C140.866 4.78684 140.998 4.72127 141.195 4.65569C141.392 4.59012 141.457 4.59012 141.523 4.59012V4.1311H137.121H136.333V4.65569C136.398 4.65569 136.464 4.72127 136.661 4.72127C136.858 4.78684 136.99 4.85241 137.055 4.91799C137.121 4.98356 137.187 5.11471 137.253 5.31143C137.253 5.50815 137.318 5.70487 137.318 5.96717V11.1475H131.011V5.96717C131.011 5.70487 131.011 5.44258 131.077 5.31143C131.077 5.11471 131.142 4.98356 131.274 4.91799C131.339 4.85241 131.471 4.78684 131.668 4.72127C131.865 4.65569 131.931 4.65569 131.996 4.65569V4.1311H127.594H126.674V4.65569C126.74 4.65569 126.806 4.72127 127.003 4.72127C127.2 4.78684 127.331 4.85241 127.397 4.91799C127.463 4.98356 127.529 5.11471 127.594 5.31143C127.594 5.50815 127.66 5.70487 127.66 5.96717V6.36061V17.5737V17.6393V18.4918C127.66 18.7541 127.66 18.9508 127.594 19.1475C127.594 19.3442 127.529 19.4754 127.397 19.5409C127.331 19.6065 127.2 19.7377 127.003 19.7377C126.806 19.8032 126.74 19.8032 126.674 19.8032V20.3278H131.996V19.8032Z" fill="#1A9F29"/>
<path d="M28.909 5.83603C28.5805 5.37702 28.252 4.918 27.9235 4.45898L9.72392 14.8852L0.919789 9.83603C0.722681 10.4262 0.591276 10.9508 0.525574 11.5409L9.78962 16.8524L28.909 5.83603Z" fill="#1A9F29"/>
<path d="M9.72406 18.8196L0.262907 13.377C0.197205 13.7049 0.197205 14.0983 0.197205 14.4262C0.197205 23.0164 7.16167 30.0328 15.8344 30.0328C24.4414 30.0328 31.4716 23.0819 31.4716 14.4262C31.4716 11.8688 30.8803 9.4426 29.7633 7.34424L9.72406 18.8196Z" fill="#1A9F29"/>
<path d="M26.6751 3.14749C26.2152 2.68847 25.7553 2.36061 25.2954 1.96716L9.72389 10.9508L2.2338 6.68847C1.97099 7.14749 1.70818 7.67208 1.44537 8.19667L9.65818 12.918L26.6751 3.14749Z" fill="#1A9F29"/>
<path d="M23.7187 0.918033C23.1274 0.590164 22.536 0.262295 21.879 0L9.72406 7.01639L4.27075 3.93443C3.87654 4.32787 3.54802 4.78689 3.15381 5.2459L9.65835 8.98361L23.7187 0.918033Z" fill="#1A9F29"/>
<path d="M106.438 38.3607L107.686 31.9344H109.723C110.906 31.9344 111.431 32.5246 111.431 33.4426C111.431 34.2951 110.906 34.7541 109.92 35.082C110.577 35.3443 110.971 35.8033 110.971 36.459C110.971 37.6394 110.183 38.2951 108.606 38.2951H106.438V38.3607ZM107.226 37.7705H108.738C109.723 37.7705 110.314 37.2459 110.314 36.459C110.314 35.8689 109.789 35.2787 108.803 35.2787H107.621L107.226 37.7705ZM107.818 34.7541H109.132C110.249 34.7541 110.84 34.2295 110.84 33.4426C110.84 32.7869 110.446 32.459 109.657 32.459H108.343L107.818 34.7541Z" fill="#1A9F29"/>
<path d="M115.439 37.1804C115.045 37.9017 114.585 38.4263 113.665 38.4263C112.614 38.4263 111.891 37.5738 111.891 36.3935C111.891 34.9509 112.811 33.705 114.06 33.705C114.979 33.705 115.439 34.2295 115.702 35.0164L115.111 35.1476C114.914 34.5574 114.585 34.2295 114.06 34.2295C113.205 34.2295 112.483 35.1476 112.483 36.4591C112.483 37.3771 112.943 37.8361 113.731 37.8361C114.454 37.8361 114.717 37.4427 114.979 36.9836L115.439 37.1804Z" fill="#1A9F29"/>
<path d="M116.819 36.1312C116.819 36.2623 116.819 36.3935 116.819 36.4591C116.819 37.3771 117.279 37.9017 118.002 37.9017C118.659 37.9017 119.053 37.4427 119.447 36.8525L119.973 37.1148C119.447 37.9017 118.921 38.4263 117.936 38.4263C116.885 38.4263 116.228 37.6394 116.228 36.4591C116.228 34.8853 117.147 33.705 118.461 33.705C119.513 33.705 120.104 34.3607 120.104 35.541C120.104 35.7377 120.038 35.9345 120.038 36.1312H116.819ZM119.513 35.6066C119.578 35.4754 119.513 35.4099 119.513 35.3443C119.513 34.8197 119.184 34.2951 118.461 34.2951C117.607 34.2951 117.213 34.8197 116.95 35.6722H119.513V35.6066Z" fill="#1A9F29"/>
<path d="M121.615 33.8361H124.178L124.112 34.3607H122.141L121.352 38.3606H120.761L121.615 33.8361Z" fill="#1A9F29"/>
<path d="M123.652 37.8361L125.557 33.8361H126.477L127.003 37.8361H127.463L127.2 39.2131H126.74L126.806 38.3606H123.718L123.455 39.2131H122.995L123.258 37.8361H123.652ZM126.346 37.8361L126.017 34.4262H125.886L124.309 37.8361H126.346Z" fill="#1A9F29"/>
<path d="M131.208 35.6721C131.208 35.4754 131.274 35.2787 131.274 35.1476C131.274 34.623 130.879 34.2951 130.288 34.2951C129.894 34.2951 129.565 34.4918 129.302 34.8197L128.908 34.4262C129.302 34.0984 129.762 33.7705 130.419 33.7705C131.339 33.7705 131.931 34.3607 131.931 35.082C131.931 35.2131 131.865 35.4754 131.865 35.8033L131.536 37.3115C131.405 37.8361 131.405 38.164 131.405 38.4262H130.814C130.748 38.2951 130.748 38.0984 130.748 37.9017C130.354 38.2295 129.96 38.4918 129.434 38.4918C128.711 38.4918 128.12 37.9017 128.12 37.1803C128.12 36.2623 128.974 35.6721 130.551 35.6721H131.208ZM131.076 36.1312H130.617C129.368 36.1312 128.711 36.459 128.711 37.1148C128.711 37.5738 129.04 37.9017 129.5 37.9017C129.96 37.9017 130.354 37.6394 130.814 37.3115L131.076 36.1312Z" fill="#1A9F29"/>
<path d="M136.661 34.3607C137.055 33.9673 137.449 33.705 137.975 33.705C138.961 33.705 139.486 34.3607 139.486 35.6066C139.486 37.2459 138.501 38.4263 137.318 38.4263C136.727 38.4263 136.333 38.164 136.004 37.8361L135.544 40.1312H134.953L136.201 33.7705H136.727L136.661 34.3607ZM136.135 37.2459C136.398 37.6394 136.727 37.9017 137.318 37.9017C138.172 37.9017 138.961 36.9181 138.961 35.541C138.961 34.6886 138.566 34.2295 137.909 34.2295C137.449 34.2295 136.99 34.4263 136.661 35.0164L136.135 37.2459Z" fill="#1A9F29"/>
<path d="M142.049 36.2623L140.603 38.3606H139.946L141.457 36.2623C140.866 36.0656 140.538 35.6066 140.538 35.082C140.538 34.4918 141.063 33.8361 142.114 33.8361H144.283L143.363 38.3606H142.771L143.166 36.2623H142.049ZM143.494 34.2951H142.049C141.392 34.2951 141.063 34.6885 141.063 35.0164C141.063 35.4754 141.326 35.6721 141.852 35.6721H143.166L143.494 34.2951Z" fill="#1A9F29"/>
<path d="M144.874 37.8361L146.779 33.8361H147.699L148.225 37.8361H148.685L148.422 39.2131H147.962L148.028 38.3606H144.94L144.677 39.2131H144.217L144.48 37.8361H144.874ZM147.502 37.8361L147.174 34.4262H147.042L145.465 37.8361H147.502Z" fill="#1A9F29"/>
<path d="M149.21 36.4591C149.21 34.8853 150.196 33.705 151.379 33.705C152.364 33.705 152.955 34.4918 152.955 35.6722C152.955 37.1804 151.97 38.4263 150.787 38.4263C149.867 38.4263 149.21 37.705 149.21 36.4591ZM149.802 36.5902C149.802 37.4427 150.262 37.9017 150.853 37.9017C151.641 37.9017 152.43 36.9181 152.43 35.6066C152.43 34.7541 151.97 34.2295 151.379 34.2295C150.59 34.2295 149.802 35.2132 149.802 36.5902Z" fill="#1A9F29"/>
<path d="M158.211 34.3607L156.24 38.3606H155.649L155.058 34.3607L154.269 38.3606H153.678L154.598 33.8361H155.583L156.109 37.7705L158.014 33.8361H159L158.08 38.3606H157.489L158.211 34.3607Z" fill="#1A9F29"/>
</g>
<defs>
<clipPath id="clip0">
<rect width="159" height="40" fill="white"/>
</clipPath>
</defs>
</svg>
