<svg width="40" height="40" viewBox="0 0 40 40" fill="none" xmlns="http://www.w3.org/2000/svg">
<rect width="40" height="40" fill="#4A76A8"/>
<path d="M29.3766 21.884C30.2391 22.6776 31.1494 23.4242 31.9229 24.2978C32.2646 24.686 32.5881 25.0866 32.8356 25.5371C33.1863 26.1776 32.8687 26.8823 32.2593 26.9206L28.4716 26.9189C27.4946 26.9953 26.7153 26.6247 26.06 25.9952C25.5356 25.4918 25.0499 24.956 24.5457 24.4356C24.3389 24.2229 24.1226 24.0227 23.8641 23.8645C23.347 23.5482 22.8982 23.645 22.6027 24.1533C22.3018 24.6703 22.2335 25.2426 22.2039 25.8188C22.1633 26.6593 21.8937 26.8804 20.9978 26.9188C19.0831 27.0039 17.266 26.7309 15.5778 25.8206C14.0895 25.0181 12.9355 23.8852 11.9309 22.6026C9.9752 20.1053 8.47742 17.361 7.13131 14.5398C6.8283 13.9042 7.04991 13.563 7.79405 13.5509C9.02971 13.5283 10.2652 13.5299 11.5023 13.5493C12.0046 13.5562 12.337 13.8277 12.531 14.2748C13.1995 15.8241 14.0175 17.298 15.0443 18.6642C15.3178 19.0279 15.5966 19.3917 15.9936 19.6477C16.4329 19.9312 16.7673 19.8372 16.974 19.376C17.1051 19.0836 17.1625 18.7687 17.1921 18.4555C17.29 17.3781 17.3029 16.3025 17.1312 15.2288C17.0258 14.5588 16.6253 14.125 15.9158 13.9982C15.5538 13.9336 15.6077 13.8066 15.783 13.6119C16.0874 13.276 16.3738 13.0669 16.9446 13.0669H21.2254C21.8993 13.1922 22.0489 13.4776 22.1412 14.1166L22.1448 18.5979C22.1375 18.8453 22.276 19.5795 22.7488 19.7432C23.1272 19.8598 23.3766 19.5745 23.6037 19.3483C24.6287 18.3232 25.3602 17.1116 26.0137 15.857C26.3037 15.3054 26.5531 14.7325 26.7947 14.1601C26.9738 13.7353 27.2547 13.5263 27.7624 13.5356L31.8824 13.539C32.0046 13.539 32.1282 13.5407 32.2465 13.5598C32.9407 13.6713 33.131 13.9528 32.9165 14.5917C32.5787 15.594 31.9213 16.4294 31.2786 17.2686C30.5915 18.1646 29.8567 19.0299 29.1753 19.9312C28.5493 20.7543 28.599 21.1691 29.3766 21.884Z" fill="white"/>
</svg>
